Coordinates
version=1
nRows=65
nColumns=12
inDegrees=yes

Units are S.I. units (second, meters, Newtons, ...)
Angles are in degrees

endheader
time	SC_y	SC_z	SC_x	AC_y	AC_z	AC_x	GH_y	GH_z	GH_yy	EL_x	PS_y
       0.0              -39.56          37.71          49.21          66.99         -0.232          2.826          79.01          9.193         -70.16          106.2          57.33
   0.04211              -39.56           37.7          49.21          66.99        -0.2315          2.827          78.99          9.191         -70.14          106.2          57.34
   0.08421              -39.56           37.7          49.21          66.98        -0.2309          2.828          78.97           9.19         -70.11          106.2          57.35
    0.1263              -39.56          37.69          49.21          66.98        -0.2302          2.829          78.95          9.188         -70.08          106.1          57.36
    0.1684              -39.56          37.69          49.21          66.98        -0.2295           2.83          78.92          9.186         -70.05          106.1          57.38
    0.2105              -39.56          37.68          49.21          66.98        -0.2288          2.831           78.9          9.184         -70.02          106.1          57.39
    0.2526              -39.56          37.67          49.21          66.98         -0.228          2.832          78.87          9.182         -69.98          106.1          57.41
    0.2947              -39.56          37.67          49.21          66.97        -0.2272          2.833          78.84           9.18         -69.94          106.1          57.42
    0.3368              -39.56          37.66          49.21          66.97        -0.2263          2.835          78.81          9.177          -69.9          106.1          57.44
     0.379              -39.56          37.65          49.21          66.97        -0.2254          2.836          78.78          9.175         -69.86          106.1          57.46
    0.4211              -39.56          37.64          49.21          66.96        -0.2243          2.837          78.75          9.172         -69.81          106.1          57.48
    0.4632              -39.55          37.63          49.21          66.96        -0.2232          2.839          78.71          9.169         -69.76          106.1           57.5
    0.5053              -39.55          37.62          49.21          66.96         -0.222          2.841          78.67          9.165          -69.7          106.1          57.52
    0.5474              -39.55          37.61          49.21          66.95        -0.2207          2.843          78.62          9.162         -69.65          106.1          57.54
    0.5895              -39.55           37.6          49.21          66.95        -0.2194          2.845          78.58          9.158         -69.58          106.0          57.57
    0.6316              -39.55          37.59          49.21          66.94        -0.2178          2.847          78.52          9.154         -69.51          106.0           57.6
    0.6737              -39.55          37.57          49.22          66.94        -0.2162          2.849          78.47          9.149         -69.44          106.0          57.63
    0.7158              -39.55          37.56          49.22          66.93        -0.2144          2.852          78.41          9.144         -69.35          106.0          57.66
    0.7579              -39.55          37.54          49.22          66.92        -0.2125          2.855          78.34          9.139         -69.26          106.0           57.7
       0.8              -39.55          37.52          49.22          66.92        -0.2103          2.858          78.27          9.133         -69.17          106.0          57.74
    0.8421              -39.55           37.5          49.22          66.91         -0.208          2.861          78.19          9.127         -69.06          105.9          57.78
    0.8842              -39.55          37.48          49.22           66.9        -0.2054          2.865           78.1           9.12         -68.94          105.9          57.83
    0.9263              -39.55          37.45          49.22          66.89        -0.2025          2.869           78.0          9.112         -68.81          105.9          57.89
    0.9684              -39.55          37.43          49.22          66.88        -0.1994          2.873          77.89          9.103         -68.66          105.8          57.95
     1.011              -39.55           37.4          49.23          66.87        -0.1959          2.879          77.77          9.093          -68.5          105.8          58.01
     1.053              -39.55          37.36          49.23          66.86        -0.1919          2.884          77.64          9.083         -68.32          105.8          58.09
     1.095              -39.55          37.32          49.23          66.84        -0.1875          2.891          77.49          9.071         -68.12          105.7          58.17
     1.137              -39.55          37.28          49.23          66.83        -0.1826          2.898          77.32          9.057         -67.89          105.7          58.26
     1.179              -39.55          37.23          49.24          66.81         -0.177          2.906          77.13          9.042         -67.63          105.6          58.37
     1.221              -39.55          37.18          49.24          66.79        -0.1707          2.915          76.91          9.024         -67.34          105.6          58.49
     1.263              -39.55          37.11          49.24          66.77        -0.1634          2.925          76.66          9.004         -67.01          105.5          58.63
     1.305              -39.55          37.04          49.25          66.74        -0.1551          2.937          76.38          8.981         -66.62          105.4          58.78
     1.347              -39.55          36.96          49.25          66.71        -0.1455          2.951          76.05          8.955         -66.18          105.3          58.96
     1.389              -39.55          36.86          49.26          66.67        -0.1344          2.967          75.67          8.924         -65.67          105.2          59.17
     1.432              -39.55          36.75          49.26          66.63        -0.1214          2.986          75.23          8.889         -65.07          105.1          59.42
     1.474              -39.55          36.61          49.27          66.58         -0.106          3.008           74.7          8.846         -64.36          104.9          59.71
     1.516              -39.55          36.45          49.28          66.52       -0.08772          3.035          74.08          8.796         -63.52          104.8          60.06
     1.558              -39.54          36.26          49.29          66.45       -0.06583          3.066          73.33          8.736         -62.51          104.5          60.47
       1.6              -39.54          36.03          49.31          66.36       -0.03934          3.104          72.42          8.663          -61.3          104.3          60.97
     1.642              -39.54          35.75          49.32          66.26      -0.006985          3.151          71.31          8.574         -59.81          104.0          61.58
     1.684              -39.54          35.41          49.35          66.13        0.03295          3.209          69.95          8.464         -57.97          103.6          62.34
     1.726              -39.53          34.97          49.37          65.96        0.08275          3.281          68.25          8.327         -55.68          103.1          63.28
     1.768              -39.53          34.43           49.4          65.76         0.1455          3.371           66.1          8.155         -52.79          102.5          64.46
     1.811              -39.52          33.73          49.45           65.5         0.2252          3.486          63.38          7.935         -49.12          101.7          65.97
     1.853              -39.52          32.85           49.5          65.17         0.3273          3.634          59.89          7.655         -44.42          100.7           67.9
     1.895              -39.51          31.71          49.57          64.74         0.4583          3.823          55.41          7.294         -38.39          99.42          70.37
     1.937               -39.5          30.25          49.65           64.2         0.6256          4.064          49.69          6.834         -30.69          97.79          73.53
     1.979              -39.48          28.42          49.76          63.51          0.836          4.368          42.49          6.256         -21.01          95.73          77.51
     2.021              -39.46          26.19           49.9          62.68          1.092          4.738          33.73           5.55         -9.206          93.22          82.35
     2.063              -39.44          23.61          50.05          61.71           1.39          5.167          23.57          4.733          4.472          90.32          87.96
     2.105              -39.42          20.81          50.22          60.66          1.711          5.631          12.56          3.848          19.28          87.18          94.04
     2.147               -39.4          18.01          50.39          59.61          2.033          6.096          1.562          2.963          34.09          84.03          100.1
      2.19              -39.38          15.43          50.54          58.65           2.33          6.525         -8.599          2.146          47.77          81.13          105.7
     2.232              -39.36           13.2          50.68          57.81          2.587          6.895         -17.36          1.441          59.57          78.62          110.6
     2.274              -39.34          11.37          50.79          57.13          2.797          7.198         -24.56          0.862          69.26          76.57          114.6
     2.316              -39.33          9.913          50.88          56.58          2.964           7.44         -30.28         0.4019          76.96          74.93          117.7
     2.358              -39.32          8.774          50.94          56.16          3.095          7.629         -34.76        0.04159          82.99          73.65          120.2
       2.4              -39.32          7.886           51.0          55.82          3.197          7.776         -38.25        -0.2391          87.68          72.65          122.1
     2.442              -39.31          7.193          51.04          55.56          3.277          7.891         -40.97        -0.4585          91.35          71.87          123.6
     2.484              -39.31          6.647          51.07          55.36           3.34          7.982         -43.12         -0.631          94.24          71.26          124.8
     2.526               -39.3          6.214           51.1           55.2           3.39          8.054         -44.82         -0.768          96.53          70.77          125.8
     2.568               -39.3          5.867          51.12          55.07           3.43          8.111         -46.19        -0.8778          98.37          70.38          126.5
     2.611               -39.3          5.586          51.14          54.96          3.462          8.158         -47.29        -0.9668          99.86          70.07          127.1
     2.653               -39.3          5.355          51.15          54.88          3.489          8.196          -48.2          -1.04          101.1          69.81          127.6
     2.695              -39.29          5.165          51.16           54.8           3.51          8.228         -48.95           -1.1          102.1          69.59          128.0
